<?xml version="1.0" encoding="iso-8859-1"?>
<!-- Generator: Adobe Illustrator 19.0.0, SVG Export Plug-In . SVG Version: 6.00 Build 0)  -->
<svg version="1.1" id="Capa_1" xmlns="http://www.w3.org/2000/svg" xmlns:xlink="http://www.w3.org/1999/xlink" x="0px" y="0px"
	 viewBox="0 0 511.999 511.999" style="enable-background:new 0 0 511.999 511.999;" xml:space="preserve">
<g>
	<g>
		<path d="M395.702,365.857l-31.556-14.237c34.88-30.276,56.972-74.916,56.972-124.62v-62c0-90.981-74.019-165-165-165
			s-164.8,74.019-164.8,165v62c0,24.813,19.987,45,44.8,45h25.145c5.028,10.555,11.967,20.141,20.055,28.404
			c0,8.954,0,25.441-0.001,36.208l-65.021,29.245c-23.659,8.338-37.42,33.595-31.54,58.022l14.817,75.991
			c1.374,7.045,7.545,12.129,14.723,12.129h201.822h60h21.584c7.177,0,13.349-5.084,14.723-12.129l14.817-75.991
			C433.122,399.452,419.361,374.195,395.702,365.857z M333.293,337.7l-2.174-0.981c-0.001-10.766-0.001-27.333-0.001-36.316
			c8.088-8.263,14.828-17.849,19.855-28.404h25.145c2.557,0,5.061-0.226,7.503-0.638C374.183,298.414,356.366,321.566,333.293,337.7
			z M391.319,165v62c0,8.271-6.929,15-15.2,15h-15c0-7.493,0-69.094,0-77v-15h15C384.389,150,391.319,156.729,391.319,165z
			 M151.319,242h-15.2c-8.271,0-15-6.729-15-15v-62c0-8.271,6.729-15.2,15-15.2h15.2C150.936,178.517,151.319,202.999,151.319,242z
			 M161.263,120.2c-27.469,0-27.756-0.387-32.648,0.438C147.007,67.925,197.213,30,256.118,30
			c58.905,0,109.11,37.925,127.503,90.638c-4.895-0.826-5.198-0.438-32.648-0.438C333.85,84.253,297.371,60,256.118,60
			C214.316,60,178.145,84.757,161.263,120.2z M316.095,120.021C302.022,138.701,279.78,150,256.118,150h-73.491
			c6.968-34.192,37.272-60,73.491-60C280.613,90,302.399,101.805,316.095,120.021z M181.118,227v-47h75
			c27.739,0,54.083-11.091,73.482-30.047c0.994,4.863,1.718,9.895,1.718,15.047v62c0,41.355-33.845,75-75.2,75
			S181.118,268.355,181.118,227z M398.036,417.021c-0.063,0.254-0.12,0.51-0.17,0.768L385.345,482h-9.227h-60H126.653
			l-12.521-64.212c-0.05-0.257-0.107-0.513-0.17-0.768c-2.429-9.715,3.11-19.806,12.611-22.973
			c1.075-0.359-3.723,1.765,75.71-34.073c5.374-2.425,8.829-7.772,8.831-13.667c0.001-2.76,0.002-13.454,0.002-24.452
			c13.647,6.5,28.905,10.145,45,10.145s31.554-3.645,45.2-10.145c0,11.139,0.001,21.968,0.002,24.56
			c0.001,2.569,0.459,5.034,1.644,7.198C288.362,359.032,272.58,362,256.116,362c-8.284,0-15,6.716-15,15s6.716,15,15,15
			c28.758,0,55.817-7.402,79.383-20.391c52.537,23.703,48.885,22.092,49.923,22.438
			C394.926,397.214,400.465,407.305,398.036,417.021z" data-old_color="#000000" fill="#8E8E8E"/>
	</g>
</g>
<g>
</g>
<g>
</g>
<g>
</g>
<g>
</g>
<g>
</g>
<g>
</g>
<g>
</g>
<g>
</g>
<g>
</g>
<g>
</g>
<g>
</g>
<g>
</g>
<g>
</g>
<g>
</g>
<g>
</g>
</svg>
