<?xml version="1.0" encoding="iso-8859-1"?>
<!-- Generator: Adobe Illustrator 19.0.0, SVG Export Plug-In . SVG Version: 6.00 Build 0)  -->
<svg version="1.1" id="Capa_1" xmlns="http://www.w3.org/2000/svg" xmlns:xlink="http://www.w3.org/1999/xlink" x="0px" y="0px"
	 viewBox="0 0 512 512" style="enable-background:new 0 0 512 512;" xml:space="preserve">
<g>
	<g>
		<path d="M225,300h-42.699c3.338-8.427,10.233-12.188,20.208-17.629C218.331,273.739,240,261.918,240,225c0-24.813-20.187-45-45-45
			s-45,20.187-45,45c0,8.284,6.716,15,15,15s15-6.716,15-15c0-8.271,6.729-15,15-15s15.2,6.729,15.2,15
			c0,19.11-7.964,23.346-22.058,31.034C172.045,264.815,150,276.841,150,315c0,8.284,6.716,15,15,15h60c8.284,0,15-6.716,15-15
			S233.284,300,225,300z" data-old_color="#000000" fill="#8E8E8E"/>
	</g>
</g>
<g>
	<g>
		<path d="M377,240h-15v-45c0-8.284-6.716-15-15-15s-15,6.716-15,15v45h-30v-45c0-8.284-6.716-15-15-15s-15,6.716-15,15v60
			c0,8.284,6.716,15,15,15h45v45c0,8.284,6.716,15,15,15s15-6.716,15-15v-45h15c8.284,0,15-6.716,15-15S385.284,240,377,240z" data-old_color="#000000" fill="#8E8E8E"/>
	</g>
</g>
<g>
	<g>
		<path d="M497,242c-8.284,0-14.8,6.716-14.8,15c0,124.065-102.032,225.2-227.2,225.2c-71.021,0-137.795-34.315-179.999-90.4
			c31.656,0,34.14,0.373,38.126-2.204C151.046,430.325,201.904,452,255,452c107.497,0,197-89.151,197-197
			c0-37.713-10.918-73.861-31.277-105H467c8.284,0,15-6.716,15-15V75c0-8.284-6.716-15-15-15s-15,6.716-15,15v15.8
			C403.776,33.951,331.679,0,255,0C114.12,0,0,113.969,0,255c0,8.284,6.716,15,15,15s14.8-6.716,14.8-15
			C29.8,130.935,130.935,29.8,255,29.8c72.116,0,139.616,34.315,181.97,90.4c-32.455,0-33.264-0.901-38.062,2.183
			C360.492,81.698,308.828,60,255,60C147.477,60,60,147.477,60,255c0,38.414,11.038,75.29,31.592,107H45c-8.284,0-15,6.716-15,15v60
			c0,8.284,6.716,15,15,15s15-6.716,15-15v-15.682C108.562,478.892,179.627,512,255,512c139.9,0,257-113.02,257-255
			C512,248.716,505.284,242,497,242z M89.8,255c0-90.981,74.219-165.2,165.2-165.2c92.084,0,167.2,74.219,167.2,165.2
			c0,90.523-76.677,167.2-167.2,167.2C164.019,422.2,89.8,347.084,89.8,255z" data-old_color="#000000" fill="#8E8E8E"/>
	</g>
</g>
<g>
</g>
<g>
</g>
<g>
</g>
<g>
</g>
<g>
</g>
<g>
</g>
<g>
</g>
<g>
</g>
<g>
</g>
<g>
</g>
<g>
</g>
<g>
</g>
<g>
</g>
<g>
</g>
<g>
</g>
</svg>
