<?xml version="1.0" encoding="iso-8859-1"?>
<!-- Generator: Adobe Illustrator 19.0.0, SVG Export Plug-In . SVG Version: 6.00 Build 0)  -->
<svg version="1.1" id="Layer_1" xmlns="http://www.w3.org/2000/svg" xmlns:xlink="http://www.w3.org/1999/xlink" x="0px" y="0px"
	 viewBox="0 0 290.626 290.626" style="enable-background:new 0 0 290.626 290.626;" xml:space="preserve">
<g>
	<g>
		<circle style="fill:rgba(0, 212, 255, 0.7);" cx="145.314" cy="145.313" r="89.063"/>
		<path style="fill:rgba(0,0,0,0.6);" d="M145.314,0C107.218,0,70.661,15.07,43.59,41.592l-6.169-33.08l-9.216,1.725l8.48,45.431
			l47.175,5.241l1.036-9.314l-34.219-3.802c25.266-24.502,59.241-38.419,94.636-38.419c74.953,0,135.937,60.98,135.937,135.938
			c0,40.908-18.187,77.625-46.875,102.567v-8.817c-3.998,0-7.589-2.222-9.375-5.794l-1.927-3.853
			c6.436-1.289,11.302-6.98,11.302-13.791c0-7.753-6.309-14.063-14.062-14.063h-18.75v46.875h9.375v-22.331l5.677,11.353
			c3.291,6.591,9.834,10.72,17.166,10.936c-23.798,20.452-54.703,32.855-88.467,32.855c-74.953,0-135.937-60.98-135.937-135.938
			c0-13.847,2.105-27.567,6.262-40.781l-8.944-2.813c-4.444,14.125-6.694,28.792-6.694,43.596
			c0,80.123,65.184,145.313,145.312,145.313s145.312-65.189,145.312-145.313S225.441,0,145.314,0z M210.938,220.313v-9.375h9.375
			c2.587,0,4.687,2.105,4.687,4.688s-2.1,4.688-4.687,4.688h-9.375V220.313z"/>
		<path style="fill:rgba(0,0,0,0.6);" d="M25.103,81.877l-8.287-4.383c-1.828,3.45-3.366,6.623-4.706,9.684l8.587,3.759
			C21.953,88.088,23.387,85.125,25.103,81.877z"/>
		<path style="fill:rgba(0,0,0,0.6);" d="M110.073,158.175l-56.887,34.134c-6.783,4.069-10.997,11.508-10.997,19.42
			c0,12.488,10.158,22.645,22.645,22.645h80.48V225h-80.48c-7.317,0-13.27-5.953-13.27-13.27c0-4.636,2.466-8.995,6.445-11.377
			l56.892-34.139c18.759-11.255,30.412-31.837,30.412-53.714c0-28.43-23.133-51.563-51.562-51.563S42.189,84.07,42.189,112.5v9.375
			h9.375V112.5c0-23.259,18.923-42.188,42.187-42.188s42.187,18.928,42.187,42.188C135.939,131.105,126.029,148.608,110.073,158.175
			z"/>
		<path style="fill:rgba(0,0,0,0.6);" d="M210.348,63.216l-8.194-4.556l-45.473,81.848c-1.303,2.353-1.992,5.016-1.992,7.697
			c0,8.742,7.116,15.858,15.858,15.858h45.08v28.125h9.374v-28.125h42.187v-9.375h-42.187v-93.75h-9.375v93.75h-45.08
			c-3.577,0-6.483-2.906-6.483-6.483c0-1.097,0.286-2.184,0.816-3.145L210.348,63.216z"/>
		<polygon style="fill:rgba(0,0,0,0.6);" points="154.688,248.438 164.063,248.438 164.063,229.688 182.813,229.688 182.813,248.438 
			192.188,248.438 192.188,201.563 182.813,201.563 182.813,220.313 164.063,220.313 164.063,201.563 154.688,201.563 		"/>
	</g>
</g>
<g>
</g>
<g>
</g>
<g>
</g>
<g>
</g>
<g>
</g>
<g>
</g>
<g>
</g>
<g>
</g>
<g>
</g>
<g>
</g>
<g>
</g>
<g>
</g>
<g>
</g>
<g>
</g>
<g>
</g>
</svg>
