<?xml version="1.0" encoding="iso-8859-1"?>
<!-- Generator: Adobe Illustrator 19.0.0, SVG Export Plug-In . SVG Version: 6.00 Build 0)  -->
<svg version="1.1" id="Layer_1" xmlns="http://www.w3.org/2000/svg" xmlns:xlink="http://www.w3.org/1999/xlink" x="0px" y="0px"
	 viewBox="0 0 489.592 489.592" style="enable-background:new 0 0 489.592 489.592;" xml:space="preserve">
<path style="fill:rgba(0, 212, 255, 0.7);" d="M277.296,352h-64v-41.624c-36.952-7.472-64-39.976-64-78.376v-8h64v8c0,8.824,7.176,16,16,16h32
	c8.824,0,16-7.176,16-16v-8c0-8.824-7.176-16-16-16h-31.992c-44.12,0-80.008-35.888-80.008-80v-8c0-38.4,27.048-70.904,64-78.376V0
	h64v41.624c36.952,7.472,64,39.976,64,78.376v8h-64v-8c0-8.824-7.176-16-16-16h-32c-8.824,0-16,7.176-16,16v8
	c0,8.824,7.176,16,16,16h32c44.112,0,80,35.888,80,80v8c0,38.4-27.048,70.904-64,78.376V352z"/>
<g>
	<path style="fill:#333333;" d="M213.296,412.16c-18.168-6.472-38.76-5.192-55.848,3.264c-10.832-21.36-31.688-35.968-55.816-38.752
		c-2.752-3.832-6.104-7.12-9.928-9.728c1.064-4.92,1.592-9.928,1.592-14.944c0-39.704-32.296-72-72-72
		c-5.896,0-11.952,0.792-17.992,2.344l3.984,15.504c36.896-9.536,70.008,18.72,70.008,54.152c0,5.56-0.848,11.112-2.528,16.488
		l-2.104,6.76l6.456,2.912c4.584,2.08,8.376,5.56,10.952,10.096l2.152,3.784l4.336,0.248c22.632,1.32,42.08,15.928,49.536,37.216
		l3.424,9.768l8.584-5.776c17.344-11.656,40.92-12.528,59.184-1.936l12.008,6.952V352h-16V412.16z"/>
	<path style="fill:#333333;" d="M391.448,368.496l5.712-0.592l1.256-5.6c2.552-11.36,9.728-21.424,19.68-27.624l3.232-2.008
		l0.48-3.776c3.536-27.88,27.384-48.896,55.488-48.896c2.384,0,4.712,0.2,7.008,0.496l1.984-15.872
		c-3.368-0.432-6.216-0.624-8.992-0.624c-34.88,0-64.688,25.192-70.808,59.184c-10.4,7.44-18.224,18.112-22.192,30.184
		c-22.84,4.192-42.384,19.288-52.176,40.168c-18.912-3.992-39,0.048-54.824,10.648V352h-16v90.96l14.008-15.904
		c14.512-16.496,38.192-23.088,59.12-16.36l7.448,2.392l2.56-7.392C351.464,385.352,369.92,370.752,391.448,368.496z"/>
	<path style="fill:#333333;" d="M101.296,448c-4.56,0-9.08,0.68-13.504,2.032c-6.968-13.664-19.944-23.112-35.072-25.464
		C49.136,401.616,29.232,384,5.296,384v16c17.648,0,32,14.352,32,32v8h8c14.072,0,26.304,9.144,30.44,22.744l2.776,9.112
		l8.496-4.296c4.656-2.368,9.456-3.56,14.288-3.56c15.16,0,28.344,10.768,31.36,25.592l15.672-3.184
		C143.808,464.152,124.032,448,101.296,448z"/>
	<path style="fill:#333333;" d="M437.864,424.568c-15.128,2.352-28.104,11.8-35.072,25.464c-4.416-1.352-8.936-2.032-13.496-2.032
		c-22.736,0-42.512,16.152-47.032,38.408l15.672,3.184c3.016-14.824,16.2-25.592,31.36-25.592c4.832,0,9.632,1.192,14.296,3.552
		l8.496,4.296l2.776-9.112c4.128-13.592,16.36-22.736,30.432-22.736h8v-8c0-17.648,14.352-32,32-32v-16
		C461.36,384,441.456,401.616,437.864,424.568z"/>
	<polygon style="fill:#333333;" points="405.296,80 421.296,80 421.296,56 445.296,56 445.296,40 421.296,40 421.296,16 405.296,16 
		405.296,40 381.296,40 381.296,56 405.296,56 	"/>
	<polygon style="fill:#333333;" points="445.296,96 445.296,120 421.296,120 421.296,136 445.296,136 445.296,160 461.296,160 
		461.296,136 485.296,136 485.296,120 461.296,120 461.296,96 	"/>
	<polygon style="fill:#333333;" points="93.296,120 109.296,120 109.296,96 133.296,96 133.296,80 109.296,80 109.296,56 93.296,56 
		93.296,80 69.296,80 69.296,96 93.296,96 	"/>
	<polygon style="fill:#333333;" points="29.296,200 45.296,200 45.296,176 69.296,176 69.296,160 45.296,160 45.296,136 29.296,136 
		29.296,160 5.296,160 5.296,176 29.296,176 	"/>
</g>
<g>
</g>
<g>
</g>
<g>
</g>
<g>
</g>
<g>
</g>
<g>
</g>
<g>
</g>
<g>
</g>
<g>
</g>
<g>
</g>
<g>
</g>
<g>
</g>
<g>
</g>
<g>
</g>
<g>
</g>
</svg>
