<?xml version="1.0" encoding="iso-8859-1"?>
<!-- Generator: Adobe Illustrator 22.1.0, SVG Export Plug-In . SVG Version: 6.00 Build 0)  -->
<svg xmlns="http://www.w3.org/2000/svg" xmlns:xlink="http://www.w3.org/1999/xlink" version="1.1" id="Layer_1_1_" x="0px" y="0px" viewBox="0 0 64 64" style="enable-background:new 0 0 64 64;" xml:space="preserve" width="512" height="512">
<g>
	<path style="fill:rgba(0, 212, 255, 0.7);" d="M38.115,35.176L34,34v-1.555c1.191-0.693,2-1.968,2-3.445v-1.792c0-2.11-1.54-4.009-3.642-4.192   C29.988,22.81,28,24.673,28,27v2c0,1.477,0.809,2.752,2,3.445V34l-4.115,1.176C24.177,35.664,23,37.224,23,39v2h11.667H41v-2   C41,37.224,39.823,35.664,38.115,35.176z"/>
	<g>
		<rect style="fill:rgba(0,0,0,0.8);" x="28" y="5" width="8" height="2"/>
		<rect style="fill:rgba(0,0,0,0.8);" x="38" y="5" width="2" height="2"/>
		<rect style="fill:rgba(0,0,0,0.8);" x="24" y="5" width="2" height="2"/>
		<rect style="fill:rgba(0,0,0,0.8);" x="29" y="57" width="6" height="2"/>
		<path style="fill:rgba(0,0,0,0.8);" d="M60,40h-8v2h5v2H40.858C40.942,43.678,41,43.347,41,43s-0.058-0.678-0.142-1H50V6c0-2.757-2.243-5-5-5H19    c-2.757,0-5,2.243-5,5v17H5c-2.206,0-4,1.794-4,4s1.794,4,4,4h7v-2H9v-4h12v4h-7v29c0,2.757,2.243,5,5,5h26c2.757,0,5-2.243,5-5    V46h10c1.654,0,3-1.346,3-3S61.654,40,60,40z M20,31h2.162l5.206-1.735C28.345,28.939,29,28.029,29,27s-0.655-1.939-1.632-2.265    L22.162,23H20v-8h24v25h-4.382c-0.703-0.615-1.612-1-2.618-1c-0.858,0-1.71,0.284-2.399,0.8L30.333,43l4.269,3.201    C35.29,46.716,36.142,47,37,47c1.006,0,1.915-0.385,2.618-1H44v3H20V31z M26.735,26.632C26.894,26.685,27,26.833,27,27    s-0.106,0.315-0.265,0.368L23,28.613v-3.225L26.735,26.632z M39,43c0,1.103-0.897,2-2,2c-0.43,0-0.855-0.143-1.2-0.399L33.667,43    l2.132-1.6C36.145,41.143,36.57,41,37,41C38.103,41,39,41.897,39,43z M19,3h26c1.654,0,3,1.346,3,3v3H16V6C16,4.346,17.346,3,19,3    z M16,11h32v29h-2V13H18v10h-2V11z M7,29H5c-1.103,0-2-0.897-2-2s0.897-2,2-2h2V29z M45,61H19c-1.654,0-3-1.346-3-3v-3h32v3    C48,59.654,46.654,61,45,61z M48,53H16V31h2v20h28v-5h2V53z M60,44h-1v-2h1c0.552,0,1,0.448,1,1S60.552,44,60,44z"/>
	</g>
</g>
</svg>
