<?xml version="1.0" encoding="iso-8859-1"?>
<!-- Generator: Adobe Illustrator 19.0.0, SVG Export Plug-In . SVG Version: 6.00 Build 0)  -->
<svg version="1.1" id="Layer_1" xmlns="http://www.w3.org/2000/svg" xmlns:xlink="http://www.w3.org/1999/xlink" x="0px" y="0px"
	 viewBox="0 0 496 496" style="enable-background:new 0 0 496 496;" xml:space="preserve">
<path style="fill:rgba(0, 212, 255, 0.7);" d="M343.168,40.528C339.56,24.4,321.864,0,248,0C112,0,112,78.272,112,104v72h8v-16.696
	C120,142.016,134.016,128,151.304,128c9.552,0,19,2.28,27.344,6.936C191.344,142.024,215.064,152,248,152
	s56.656-9.976,69.352-17.064c8.344-4.656,17.784-6.936,27.344-6.936C361.984,128,376,142.016,376,159.304V176h8V88
	C384,63.968,366.248,44.008,343.168,40.528z"/>
<path style="fill:rgba(0,0,0,0.6);" d="M388.928,376h-59.912c-12.536,0-22.848-9.296-24.648-21.336
	c36.696-18.304,63.776-53.864,69.616-96.632l9.944-72.952L384,159.304C384,137.632,366.368,120,344.696,120
	c-11.136,0-21.936,2.752-31.24,7.952C302.712,133.944,279.928,144,248,144s-54.712-10.056-65.448-16.048
	c-9.312-5.2-20.112-7.952-31.248-7.952c-12.928,0-24.32,6.352-31.488,16.016C106.664,136.12,96,146.832,96,160v89.976
	c0,28.392,19.184,52.32,45.264,59.656c12.464,19.216,29.896,34.816,50.368,45.032c-1.8,12.04-12.112,21.336-24.648,21.336h-59.912
	C56.848,376,16,416.848,16,467.072V496h464v-28.928C480,416.848,439.152,376,388.928,376z M318.352,390.416L292.6,465.288
	L259.312,432l46.936-46.936C309.896,387.512,314.008,389.24,318.352,390.416z M284.688,480h-73.376L248,443.312L284.688,480z
	 M112,249.976V184l10.016,74.032c1.32,9.696,3.856,18.96,7.224,27.8C118.744,277.384,112,264.464,112,249.976z M162.856,312h54.616
	c3.312,9.288,12.112,16,22.528,16h16c13.232,0,24-10.768,24-24s-10.768-24-24-24h-16c-10.416,0-19.216,6.712-22.528,16h-59.448
	c-2.28,0-4.496-0.224-6.688-0.544c-6.8-11.96-11.512-25.296-13.464-39.584L128,183.456v-24.152C128,146.456,138.456,136,151.304,136
	c8.408,0,16.504,2.048,23.448,5.92C189.52,150.168,214.224,160,248,160s58.48-9.832,73.256-18.08
	c6.928-3.872,15.032-5.92,23.44-5.92C357.544,136,368,146.456,368,159.304v24.152l-9.872,72.424
	C350.648,310.672,303.304,352,248,352C214.2,352,183.432,336.512,162.856,312z M240,296h16c4.416,0,8,3.584,8,8s-3.584,8-8,8h-16
	c-4.416,0-8-3.584-8-8S235.584,296,240,296z M248,368c14.4,0,28.272-2.56,41.296-7.08c1.16,4.624,3.088,8.936,5.672,12.792
	L248,420.688l-46.968-46.968c2.584-3.856,4.512-8.168,5.672-12.792C219.728,365.44,233.6,368,248,368z M189.752,385.064L236.688,432
	L203.4,465.288l-25.752-74.872C181.992,389.24,186.104,387.512,189.752,385.064z M32,467.072C32,425.68,65.68,392,107.072,392
	h54.208l30.264,88H32V467.072z M464,480H304.456l30.264-88h54.208C430.32,392,464,425.68,464,467.072V480z"/>
<g>
</g>
<g>
</g>
<g>
</g>
<g>
</g>
<g>
</g>
<g>
</g>
<g>
</g>
<g>
</g>
<g>
</g>
<g>
</g>
<g>
</g>
<g>
</g>
<g>
</g>
<g>
</g>
<g>
</g>
</svg>
