<?xml version="1.0" encoding="iso-8859-1"?>
<!-- Generator: Adobe Illustrator 19.0.0, SVG Export Plug-In . SVG Version: 6.00 Build 0)  -->
<svg version="1.1" id="Layer_1" xmlns="http://www.w3.org/2000/svg" xmlns:xlink="http://www.w3.org/1999/xlink" x="0px" y="0px"
	 viewBox="0 0 489.136 489.136" style="enable-background:new 0 0 489.136 489.136;" xml:space="preserve">
<circle style="fill:rgba(0, 212, 255, 0.7);" cx="232" cy="321.128" r="64"/>
<g>
	<path style="fill:rgba(0,0,0,0.7);" d="M136,89.128c0-26.472-21.528-48-48-48s-48,21.528-48,48s21.528,48,48,48S136,115.6,136,89.128z
		 M88,121.128c-17.648,0-32-14.352-32-32s14.352-32,32-32s32,14.352,32,32S105.648,121.128,88,121.128z"/>
	<path style="fill:rgba(0,0,0,0.7);" d="M465.136,97.048l-2.264-15.84l-37.456,5.352L436.32,72.6l52.816-7.544l-2.264-15.84l-48.08,6.864
		L431.928,8l-15.84,2.264l7.52,52.632L413.12,76.32L407.936,40l-15.84,2.264l7.368,51.552L323.92,190.48
		c-18.72-13.192-40.416-22.448-64.048-26.608c-0.672-14.848-12.864-26.744-27.872-26.744H88H48c-26.472,0-48,21.528-48,48v92
		c0,15.44,12.56,28,28,28c3.488,0,6.8-0.72,9.888-1.896l-13.8,146.408c-1.408,14.88,8.544,28.512,22.664,31.04
		c1.704,0.304,3.4,0.456,5.08,0.456c6.08,0,11.92-1.952,16.84-5.696c6.192-4.72,10.168-11.856,10.896-19.608l6.52-69.176
		c1.456,3.264,3.048,6.464,4.72,9.608l5.544,58.792c1.2,12.856,10.512,23.376,22.632,25.584c8.784,1.616,17.568-0.88,24.08-6.848
		c4.352-3.984,7.088-9.128,8.288-14.688c24.504,14.408,52.08,22.024,80.648,22.024c88.224,0,160-71.776,160-160
		c0-47.848-21.416-91.264-55.488-120.776l74.68-95.592L465.136,97.048z M237.264,301.4L231.92,264l-15.84,2.264l9.136,63.92
		l63.92-9.136l-2.264-15.84l-36.336,5.192l46.576-59.616C316.056,268.328,328,293.328,328,321.128c0,52.936-43.064,96-96,96
		c-39.176,0-73.896-23.352-88.768-59.592l-5.248-55.672c9.072-44.536,48.432-76.736,94.016-76.736
		c19.392,0,37.432,5.824,52.544,15.752L237.264,301.4z M232,209.128c-40.184,0-76.216,21.456-96,54.352v-49.472
		c9.168-8.224,19.352-15.232,30.32-20.872H232c1.672,0,3.304-0.208,4.912-0.496c0.48-0.088,0.944-0.184,1.416-0.288
		c1.344-0.32,2.664-0.712,3.936-1.224c0.576-0.232,1.128-0.504,1.688-0.768c0.92-0.44,1.824-0.92,2.696-1.464
		c0.624-0.384,1.224-0.784,1.816-1.216c0.688-0.504,1.336-1.064,1.976-1.632c0.936-0.824,1.792-1.696,2.608-2.64
		c0.448-0.512,0.888-1.024,1.296-1.576c0.536-0.712,1.032-1.44,1.496-2.2c0.072-0.12,0.168-0.224,0.232-0.344
		c21.4,3.6,41.088,11.896,58.064,23.728l-19.688,25.2C276.592,216.168,255.104,209.128,232,209.128z M136,193.448v-0.32h0.424
		C136.28,193.232,136.144,193.336,136,193.448z M132.256,462c-1.624,1.504-5.152,3.832-10.392,2.904
		c-5.024-0.92-9.048-5.688-9.584-11.352l-2.04-21.648l0,0L96.032,281.128H79.968l-6.016,63.808v0.016L63.648,454.328
		c-0.312,3.304-2.016,6.36-4.664,8.376c-2.68,2.048-6.048,2.84-9.432,2.224c-5.88-1.056-10.168-7.232-9.544-13.792L56,281.128v-4
		v-68v-24H40v92c0,6.616-5.384,12-12,12s-12-5.384-12-12v-92c0-17.648,14.352-32,32-32h184c6.616,0,12,5.384,12,12
		c0,0.72-0.088,1.424-0.216,2.104l-0.304,1.088c-1.064,3.824-3.928,6.768-7.48,8.064c-0.144,0.048-0.288,0.088-0.44,0.136
		c-1.136,0.376-2.328,0.608-3.56,0.608h-69.472H120l0.008,29.888L120,207.024l0.04,74.848l1.808,19.184v0.016l2.224,23.536
		l11.704,124.224h0.008l0.304,3.264C136.432,455.848,135.04,459.456,132.256,462z M376,321.128c0,79.4-64.6,144-144,144
		c-29.024,0-56.944-8.664-80.992-25.096l-4.392-46.488c20.848,24.728,51.672,39.584,85.384,39.584c61.76,0,112-50.24,112-112
		c0-32.912-14.352-62.456-37.032-82.968l19.712-25.232C357,239.48,376,278.352,376,321.128z"/>
</g>
<g>
</g>
<g>
</g>
<g>
</g>
<g>
</g>
<g>
</g>
<g>
</g>
<g>
</g>
<g>
</g>
<g>
</g>
<g>
</g>
<g>
</g>
<g>
</g>
<g>
</g>
<g>
</g>
<g>
</g>
</svg>
