<?xml version="1.0" encoding="iso-8859-1"?>
<!-- Generator: Adobe Illustrator 19.0.0, SVG Export Plug-In . SVG Version: 6.00 Build 0)  -->
<svg version="1.1" id="Layer_1" xmlns="http://www.w3.org/2000/svg" xmlns:xlink="http://www.w3.org/1999/xlink" x="0px" y="0px"
	 viewBox="0 0 490.368 490.368" style="enable-background:new 0 0 490.368 490.368;" xml:space="preserve">
<path style="fill:rgba(0, 212, 255, 0.7);" d="M245.184,49.176c-39.704,0-72,32.296-72,72c0,23.992,12.152,46.496,32,59.8v20.2h80v-20.2
	c19.848-13.304,32-35.808,32-59.8C317.184,81.472,284.888,49.176,245.184,49.176z M245.184,137.176c-8.84,0-16-7.16-16-16
	s7.16-16,16-16s16,7.16,16,16S254.024,137.176,245.184,137.176z"/>
<g>
	<path style="fill:rgba(0,0,0,0.7);" d="M480.184,242.928l-74.128,59.312l-69.376-76.32L490.368,95.272l-10.36-12.184L321.232,218.032
		c-10,1.336-19.528,4.472-28.24,9.256c-0.176-1.824-0.544-3.584-1.176-5.232c5.608-3.552,9.368-9.76,9.368-16.88
		c0-11.032-8.968-20-20-20h-28v-41.472c9.288-3.312,16-12.112,16-22.528c0-13.232-10.768-24-24-24c-13.232,0-24,10.768-24,24
		c0,10.416,6.712,19.216,16,22.528v41.472h-28c-11.032,0-20,8.968-20,20c0,7.12,3.76,13.328,9.368,16.88
		c-0.624,1.624-0.992,3.352-1.168,5.144c-8.728-4.776-18.272-7.888-28.28-9.192L10.36,83.08L0,95.264l153.688,130.648l-69.384,76.32
		L10.176,242.92l-10,12.496l79.6,63.68c4.2,16.752,13.536,31.824,26.784,42.888l14.592,12.208c-2.856,8.248-1.84,17.584,3.56,24.68
		c4.432,5.824,10.832,9.464,18.024,10.272c0.704,0.08,1.408,0.128,2.112,0.152c0,0.208,0,0.416,0,0.616
		c0.12,8.04,3.832,15.512,10.192,20.52c4.448,3.504,9.832,5.296,15.312,5.416c-0.008,0.24-0.008,0.488,0,0.728
		c0.12,8.04,3.832,15.512,10.176,20.512c4.456,3.504,9.84,5.304,15.32,5.424c0,0.248,0,0.496,0,0.744
		c0.128,8.032,3.832,15.504,10.192,20.512c4.6,3.624,10.216,5.424,15.896,5.424c6.192,0,12.464-2.152,17.544-6.408l0.432-0.368
		c4.656,3.512,10.168,5.368,15.736,5.368c6.52,0,13.056-2.408,18.104-7.208c5-4.76,7.864-11.36,8.12-18.256
		c0.168,0,0.336,0.048,0.504,0.048c6.528,0,13.056-2.408,18.104-7.2c5-4.768,7.856-11.376,8.12-18.264
		c0.168,0,0.336,0.048,0.504,0.048c6.528,0,13.056-2.408,18.112-7.2c5-4.76,7.856-11.368,8.112-18.256
		c0.168,0,0.336,0.048,0.512,0.048c6.528,0,13.056-2.408,18.104-7.208c5.288-5.032,8.288-12.12,8.224-19.448
		c-0.008-1.352-0.232-2.68-0.448-4.008l22.232-18.872c13.28-11.112,22.624-26.24,26.8-43.048l79.408-63.52L480.184,242.928z
		 M245.184,113.176c4.416,0,8,3.584,8,8s-3.584,8-8,8s-8-3.584-8-8S240.768,113.176,245.184,113.176z M226.168,249.176h38.208
		l-19.104,15.976L226.168,249.176z M217.184,225.176h56c2.2,0,4,1.8,4,4s-1.8,4-4,4h-56c-2.2,0-4-1.8-4-4
		S214.984,225.176,217.184,225.176z M209.184,201.176h72c2.2,0,4,1.8,4,4s-1.8,4-4,4h-8h-56h-8c-2.2,0-4-1.8-4-4
		S206.984,201.176,209.184,201.176z M95.024,314.248l41.008-45.12l31.984-35.184c11.896,1.744,22.96,6.68,32.2,14.408l86.856,72.616
		c2.28,1.912,3.632,4.616,3.808,7.616c0.168,3-0.88,5.848-2.952,8.008c-3.776,3.952-9.832,4.352-14.088,0.92l-39.328-31.696
		c-3.456-2.792-8.488-2.224-11.248,1.2c-0.016,0.024-0.024,0.048-0.04,0.072l-0.04-0.032c-6.008,7.592-14.96,11.952-24.568,11.952
		c-17.304,0-31.384-14.208-31.384-31.672h-16c0,16.272,8.152,30.64,20.552,39.248l-41.312,34.544l-13.648-11.416
		C105.928,340.608,98.28,328.12,95.024,314.248z M215.952,471.2c-2.584-2.032-4.04-4.936-4.088-8.176
		c-0.04-2.984,1.184-5.776,3.32-7.8c1.4,4.264,3.744,8.2,7.096,11.288l5.384,4.952C223.864,473.728,219.216,473.768,215.952,471.2z
		 M262.744,468.992c-3.888,3.728-10.048,3.768-14.016,0.12l-15.616-14.368c-2.168-1.992-3.368-4.712-3.392-7.664
		s1.144-5.696,3.264-7.72c1.968-1.872,4.512-2.816,7.072-2.816c2.496,0,4.984,0.896,6.944,2.704l1.976,1.816
		c0.008,0.008,0.008,0.008,0.016,0.016c0.008,0,0.008,0.008,0.008,0.008l13.632,12.544c2.152,1.984,3.352,4.696,3.376,7.648
		C266.032,464.232,264.88,466.968,262.744,468.992z M289.472,443.576c-3.896,3.712-10.056,3.752-14.016,0.112l-1.976-1.816
		c-0.008-0.008-0.008-0.008-0.016-0.016c-0.008,0-0.008-0.008-0.008-0.008l-13.632-12.544c-2.152-1.984-3.352-4.696-3.376-7.648
		c-0.024-2.952,1.144-5.696,3.264-7.72c3.888-3.704,10.048-3.768,14.016-0.112l15.616,14.368c2.168,1.992,3.368,4.712,3.392,7.664
		S291.6,441.552,289.472,443.576z M316.216,418.144c-3.912,3.712-10.056,3.768-14.024,0.12l-15.624-14.376
		c-2.16-1.984-3.36-4.704-3.392-7.656c-0.024-2.952,1.136-5.688,3.264-7.712c1.968-1.872,4.512-2.824,7.072-2.824
		c2.496,0,4.984,0.896,6.944,2.704l8.872,8.16l6.76,6.216c2.16,1.992,3.36,4.704,3.384,7.664
		C319.488,413.392,318.336,416.136,316.216,418.144z M342.936,392.728c-3.888,3.712-10.056,3.76-14.008,0.128l-2-1.84
		c-0.008-0.008-0.008-0.016-0.016-0.024l-7.248-6.672l-6.368-5.864c-2.16-1.984-3.36-4.696-3.384-7.648
		c-0.024-2.96,1.136-5.696,3.256-7.72c1.968-1.872,4.52-2.816,7.072-2.816c2.496,0,4.984,0.888,6.936,2.688l15.632,14.392
		c2.16,1.984,3.36,4.704,3.392,7.648C346.224,387.968,345.064,390.704,342.936,392.728z M373.664,349.752l-19.432,16.496
		c-0.208-0.208-0.368-0.464-0.584-0.664l-15.632-14.392c-10.144-9.312-25.896-9.168-35.872,0.304c-5,4.76-7.864,11.376-8.112,18.272
		c-6.696-0.128-13.432,2.224-18.608,7.152c-5,4.76-7.864,11.376-8.112,18.272c-6.696-0.128-13.432,2.216-18.608,7.144
		c-5,4.768-7.864,11.384-8.12,18.28c-6.696-0.128-13.424,2.224-18.608,7.144c-1.408,1.344-2.624,2.848-3.696,4.448
		c-0.568,0.28-1.16,0.48-1.672,0.904l-11.224,9.384c-0.008,0.008-0.016,0.008-0.024,0.008c-0.024,0.016-0.048,0.04-0.072,0.056
		l-1.536,1.288c-3.968,3.328-9.552,3.616-13.296,0.672c-2.584-2.032-4.032-4.936-4.08-8.176c-0.048-3.192,1.312-6.192,3.752-8.224
		l55.488-46.392l-10.264-12.28l-55.488,46.392c-0.016,0.016-0.032,0.032-0.056,0.048l-1.56,1.312
		c-3.96,3.312-9.552,3.608-13.288,0.664c-2.584-2.032-4.04-4.936-4.088-8.176c-0.048-3.192,1.32-6.192,3.752-8.224l56.256-47.048
		l-10.264-12.28l-56.272,47.04l0,0l-2.088,1.736c-2.168,1.824-4.888,2.6-7.72,2.336c-2.816-0.32-5.328-1.76-7.08-4.064
		c-3.344-4.392-2.28-11.128,2.368-15.008l48.304-40.392c3.384,0.776,6.888,1.216,10.496,1.216c11.808,0,22.904-4.4,31.528-12.168
		l33.656,27.12c10.776,8.68,26.12,7.704,35.696-2.312c5.088-5.32,7.776-12.584,7.36-19.952c-0.408-7.36-3.864-14.288-9.504-19.008
		l-39.6-33.112l32.568-27.232c9.192-7.688,20.2-12.616,32.056-14.376l0.576,0.632l72.528,79.792
		C392.208,328.208,384.568,340.64,373.664,349.752z"/>
	<path style="fill:rgba(0,0,0,0.7);" d="M397.184,257.176c0,13.232,10.768,24,24,24s24-10.768,24-24s-10.768-24-24-24
		S397.184,243.944,397.184,257.176z M429.184,257.176c0,4.416-3.584,8-8,8s-8-3.584-8-8s3.584-8,8-8S429.184,252.76,429.184,257.176
		z"/>
	<path style="fill:rgba(0,0,0,0.7);" d="M93.184,257.176c0-13.232-10.768-24-24-24s-24,10.768-24,24s10.768,24,24,24
		S93.184,270.408,93.184,257.176z M61.184,257.176c0-4.416,3.584-8,8-8s8,3.584,8,8s-3.584,8-8,8S61.184,261.592,61.184,257.176z"/>
	<rect x="237.184" y="1.176" style="fill:rgba(0,0,0,0.7);" width="16" height="32"/>
	
		<rect x="185.184" y="15.117" transform="matrix(-0.866 0.5 -0.5 -0.866 376.0437 -38.5299)" style="fill:rgba(0,0,0,0.7);" width="16" height="31.999"/>
	
		<rect x="147.112" y="53.156" transform="matrix(-0.5 0.866 -0.866 -0.5 292.5596 -30.596)" style="fill:rgba(0,0,0,0.7);" width="16" height="31.999"/>
	<rect x="125.184" y="113.176" style="fill:rgba(0,0,0,0.7);" width="32" height="16"/>
	<rect x="333.184" y="113.176" style="fill:rgba(0,0,0,0.7);" width="32" height="16"/>
	
		<rect x="319.267" y="61.163" transform="matrix(-0.8661 0.4999 -0.4999 -0.8661 660.2125 -38.5335)" style="fill:rgba(0,0,0,0.7);" width="32" height="16"/>
	
		<rect x="281.178" y="23.141" transform="matrix(-0.4999 0.8661 -0.8661 -0.4999 472.7062 -210.6748)" style="fill:rgba(0,0,0,0.7);" width="32" height="16"/>
</g>
<g>
</g>
<g>
</g>
<g>
</g>
<g>
</g>
<g>
</g>
<g>
</g>
<g>
</g>
<g>
</g>
<g>
</g>
<g>
</g>
<g>
</g>
<g>
</g>
<g>
</g>
<g>
</g>
<g>
</g>
</svg>
