<?xml version="1.0" encoding="iso-8859-1"?>
<!-- Generator: Adobe Illustrator 19.0.0, SVG Export Plug-In . SVG Version: 6.00 Build 0)  -->
<svg version="1.1" id="Layer_1" xmlns="http://www.w3.org/2000/svg" xmlns:xlink="http://www.w3.org/1999/xlink" x="0px" y="0px"
	 viewBox="0 0 496 496" style="enable-background:new 0 0 496 496;" xml:space="preserve">
<g>
	<path style="fill:rgba(0,0,0,0.7);" d="M267.792,419.68C284.4,412.12,296,395.408,296,376c0-23.736-17.336-43.448-40-47.28V216h-16v112.72
		c-22.664,3.824-40,23.536-40,47.28c0,19.408,11.6,36.12,28.208,43.68C207.088,427.704,192,448.096,192,472v24h112v-24
		C304,448.096,288.912,427.704,267.792,419.68z M216,376c0-17.648,14.352-32,32-32s32,14.352,32,32s-14.352,32-32,32
		S216,393.648,216,376z M288,480h-80v-8c0-22.056,17.944-40,40-40s40,17.944,40,40V480z"/>
	<path style="fill:rgba(0,0,0,0.7);" d="M459.792,419.68C476.4,412.12,488,395.408,488,376c0-23.736-17.336-43.448-40-47.28V248H336v-64h-16
		v80h112v64.72c-22.664,3.824-40,23.536-40,47.28c0,19.408,11.6,36.12,28.208,43.68C399.088,427.704,384,448.096,384,472v24h112v-24
		C496,448.096,480.912,427.704,459.792,419.68z M408,376c0-17.648,14.352-32,32-32s32,14.352,32,32s-14.352,32-32,32
		S408,393.648,408,376z M480,480h-80v-8c0-22.056,17.944-40,40-40s40,17.944,40,40V480z"/>
	<path style="fill:rgba(0,0,0,0.7);" d="M160,248H48v80.72C25.336,332.552,8,352.264,8,376c0,19.408,11.6,36.12,28.208,43.68
		C15.088,427.704,0,448.096,0,472v24h112v-24c0-23.904-15.088-44.296-36.208-52.32C92.4,412.12,104,395.408,104,376
		c0-23.736-17.336-43.448-40-47.28V264h112v-80h-16V248z M96,472v8H16v-8c0-22.056,17.944-40,40-40S96,449.944,96,472z M88,376
		c0,17.648-14.352,32-32,32s-32-14.352-32-32s14.352-32,32-32S88,358.352,88,376z"/>
</g>
<path  style="fill:rgba(0, 212, 255, 0.7);" d="M248,224.68l-92.432-38.912C114.52,168.48,88,128.528,88,84c0-46.32,37.68-84,84-84
	c33.528,0,62.536,19.752,76,48.232C261.464,19.752,290.472,0,324,0c46.32,0,84,37.68,84,84c0,44.528-26.52,84.48-67.568,101.768
	L248,224.68z"/>
<g>
</g>
<g>
</g>
<g>
</g>
<g>
</g>
<g>
</g>
<g>
</g>
<g>
</g>
<g>
</g>
<g>
</g>
<g>
</g>
<g>
</g>
<g>
</g>
<g>
</g>
<g>
</g>
<g>
</g>
</svg>
